PathFileType	4	(X/Y/Z)	C:/Users/beibeiliu/ov580/test_trc/User1\sequence.4_training_dense_left.trc
DataRate	CameraRate	NumFrames	NumMarkers	Units	OrigDataRate	OrigDataStartFrame	OrigNumFrames
120	120	8	19	mm	120	220	251
Frame#	Time	ThumbCMC			ThumbMCP			ThumbIP			ThumbTip			IndexMCP			IndexPIP			IndexTip			MiddleMCP			MiddlePIP			MiddleTip			RingMCP			RingPIP			RingTip			PinkyMCP			PinkyPIP			PinkyTip			BackHand1			BackHand2			BackHand3	
		X0	Y0	Z0	X1	Y1	Z1	X2	Y2	Z2	X3	Y3	Z3	X4	Y4	Z4	X5	Y5	Z5	X6	Y6	Z6	X7	Y7	Z7	X8	Y8	Z8	X9	Y9	Z9	X10	Y10	Z10	X11	Y11	Z11	X12	Y12	Z12	X13	Y13	Z13	X14	Y14	Z14	X15	Y15	Z15	X16	Y16	Z16	X17	Y17	Z17	X18	Y18	Z18	
219	1.825	-164.817	129.025	-11.2611	-125.932	129.292	-18.5352	-102.364	114.18	-36.2115	-87.8316	93.7493	-38.6501	-127.513	104.958	-74.7558	-102.599	99.205	-53.3602	-130.757	114.506	-31.3539	-126.282	78.3489	-70.9737	-102.174	79.3416	-46.2889	-129.649	91.4979	-19.1327	-123.922	59.0897	-54.9881	-109.655	70.1037	-30.9184	-138.477	81.197	-12.0215	-135.992	46.8405	-40.2349	-120.575	57.16	-17.4285	-145.309	75.8989	-7.14929	-186.596	68.0911	-38.6721	-209.025	75.6426	-11.4012	-194.161	103.203	-32.1568	
220	1.83333	-167.541	134.141	-11.6993	-129.673	135.997	-22.4064	-105.086	127.546	-37.7165	-88.5896	104.991	-47.0361	-130.803	110.349	-77.3994	-105.485	111.381	-56.3585	-129.494	120.914	-34.2008	-128.422	88.1767	-74.8368	-101.412	93.5898	-51.2087	-130.249	102.296	-22.2418	-121.887	66.2589	-59.0247	-108.253	75.7241	-32.5527	-134.747	86.0471	-15.3698	-127.371	50.3966	-41.9167	-116.459	66.0673	-21.5229	-145.821	80.9361	-9.98751	-183.591	66.397	-39.2501	-202.657	76.0322	-10.9619	-194.765	106.056	-32.6378	
221	1.84167	-169.036	137.021	-11.4801	-130.866	140.656	-26.1173	-107.458	133.101	-44.4877	-87.779	115.712	-54.1264	-135.238	114.844	-79.6862	-107.984	116.83	-62.4267	-133.394	124.597	-37.0663	-128.539	94.2702	-78.8004	-102.897	98.499	-53.2026	-131.711	105.078	-24.2258	-123.463	74.9658	-63.05	-107.658	84.5945	-35.7157	-136.723	89.2748	-16.535	-125.954	59.38	-46.6002	-114.696	72.5052	-24.1111	-143.907	81.6242	-8.7806	-181.284	70.369	-40.1997	-203.143	71.3719	-5.19674	-195.522	107.309	-32.2801	
222	1.85	-169.986	136.301	-11.6658	-133.493	143.535	-29.0554	-111.762	139.094	-49.5524	-91.2038	121.045	-61.6736	-141.253	121.941	-81.9344	-111.747	124.949	-66.8306	-133.945	129.088	-38.6541	-133.945	98.3122	-80.4732	-105.745	107.112	-56.6921	-132.914	107.934	-26.597	-123.473	81.0341	-66.6107	-107.106	90.2277	-40.1734	-133.873	91.4982	-18.6386	-129.241	61.1473	-49.6503	-114.488	77.6061	-25.6724	-144.086	83.0939	-10.8657	-180.651	69.003	-39.5952	-197.483	73.2243	-5.41178	-195.928	103.388	-26.0584	
223	1.85833	-172.012	139.451	-11.2303	-138.542	147.558	-25.8393	-119.941	141.956	-48.7632	-96.5789	131.584	-65.0787	-145.363	126.662	-83.2973	-116.96	127.511	-67.6727	-141.266	129.093	-39.5129	-135.319	100.674	-82.1005	-109.232	113.102	-62.7514	-134.475	114.393	-28.4311	-128.19	86.322	-69.9929	-110.562	97.1582	-42.3123	-134.01	97.7439	-22.461	-125.678	69.3225	-54.7454	-116.532	84.5608	-32.9138	-144.157	85.6253	-14.7226	-183.265	73.8084	-40.1971	-195.777	68.7361	-6.82184	-195.426	103.768	-25.2235	
224	1.86667	-173.682	138.857	-10.6228	-144.001	147.762	-32.5546	-123.821	151.236	-52.8973	-104.54	137.735	-70.8877	-152.992	131.565	-84.7404	-124.725	133.768	-68.1954	-148.999	135.276	-41.9651	-141.431	106.558	-85.7756	-114.969	116.119	-64.2615	-138.089	118.973	-31.938	-135.795	88.1569	-72.5524	-113.175	100.405	-46.9974	-137.025	101.52	-25.1724	-128.6	70.5236	-59.5919	-116.393	86.5503	-36.9589	-147.025	88.56	-18.3382	-184.355	72.1677	-37.5954	-196.018	70.8675	-2.79606	-199.58	107.6	-24.7008	
225	1.875	-176.757	142.419	-9.34852	-148.89	155.465	-32.8334	-134.753	150.3	-54.354	-115.27	138.573	-79.6382	-160.733	132.645	-86.9892	-134.449	140.093	-71.7312	-153.553	133.503	-44.2692	-156.447	110.411	-87.5241	-123.821	117.98	-72.4273	-140.807	119.953	-37.4429	-139.206	91.3342	-77.7713	-120.762	107.809	-55.6629	-139.26	103.329	-29.3396	-136.81	76.5766	-63.802	-123.192	90.2872	-43.7818	-149.204	89.9852	-20.9438	-189.418	74.2918	-36.1857	-193.526	73.3715	1.4784	-201.66	108.205	-20.2875	
226	1.88333	-179.447	143.136	-9.63498	-154.254	150.94	-35.7387	-140.304	153.249	-64.062	-126.26	137.769	-85.0539	-173.908	133.72	-85.0945	-143.589	139.675	-75.564	-160.464	137.431	-45.3637	-165.159	111.606	-89.6231	-133.346	122.25	-75.6068	-148.321	122.189	-39.9849	-150.832	95.5891	-80.5111	-127.461	105.946	-60.9175	-146.954	106.485	-31.738	-142.809	74.7008	-68.117	-127.637	90.85	-48.8204	-151.413	94.4866	-28.0113	-192.175	72.7832	-36.8717	-196.255	75.5069	0.88951	-205.02	106.297	-15.2757	
